<svg id="playFasterIcon" xmlns="http://www.w3.org/2000/svg" xmlns:xlink="http://www.w3.org/1999/xlink" viewBox="0 0 400 300" shape-rendering="geometricPrecision" text-rendering="geometricPrecision" style="background-color:transparent"><path d="M49.96155,80.008781c.456397-35.280551,20.334153-37.668306,50.185017-20.306585l130.706284,70.297799c23.023097,11.730504,23.228562,28.104306,0,40l-130.706284,70.15143c-32.291146,20.16151-50.374886,15.467094-49.976733-20.011392L49.96155,80.008781Z" transform="matrix(.629888 0 0 1 34.138535-.538278)" fill="#1d2f29" stroke="#1d2f29" stroke-width="0.6"/><path d="M49.96155,80.008781c.456397-35.280551,20.334153-37.668306,50.185017-20.306585l130.706284,70.297799c23.023097,11.730504,23.228562,28.104306,0,40l-130.706284,70.15143c-32.291146,20.16151-50.374886,15.467094-49.976733-20.011392L49.96155,80.008781Z" transform="matrix(.629888 0 0 1 188.529819-.538278)" fill="#1d2f29" stroke="#1d2f29" stroke-width="0.6"/></svg>
