<svg id="slowIcon" xmlns="http://www.w3.org/2000/svg" xmlns:xlink="http://www.w3.org/1999/xlink" viewBox="0 0 300 300" shape-rendering="geometricPrecision" text-rendering="geometricPrecision" style="background-color:transparent"><path d="M150,250c-.213433-4.811849-.61836-14.276932,0-20.0432c18.840494.697956,44.608924-11.147503,55.851047-22.585341C217.559736,196.859653,226.996067,171.708253,228.091164,150c-.035934-24.150819-7.612219-39.935838-23.696731-56.343819C188.137612,79.182414,168.843261,69.150105,150,70.0432c-22.154338-.502512-46.0905,12.797942-56.327044,23.727782C73.799222,113.219217,69.551288,137.169108,70.0335,150c-4.483089.292511-12.191062.253463-20.0335,0-.603018-16.047281,4.709125-46.000819,29.561699-70.324248C92.36274,66.006071,122.295476,49.371521,150,50c24.089882-.355017,48.214873,7.06181,70.052156,27.998458c21.499012,21.277065,29.730824,46.367198,29.437404,69.090993-.652415,36.587811-15.793883,61.402298-25.597142,71.935064C203.28437,241.074139,171.594369,249.715411,150,250Z" fill="#1d2f29" stroke="#1d2f29" stroke-width="0.6"/><path d="M150,80l-10,60c4.8125,3.833723,14.8125,3.47742,20,0L150,80Z" transform="matrix(.562393 0 0 1 63.453015 0)" fill="#1d2f29" stroke="#1d2f29" stroke-width="0.6"/><path d="M170.290736,146.144725l25.433329-2.060979-19.547928,18.033562c-6.000094-2.895494-6.97101-11.862096-5.885401-15.972583Z" transform="matrix(1.197769 0 0 0.977254-34.925667 6.088835)" fill="#1d2f29" stroke="#1d2f29" stroke-width="0.6"/><path d="M210,120c-8.323934-14.276866-26.005621-29.555361-40-40s34.237634,16.46054,40,40Z" transform="matrix(.704252 0 0 0.771303 45.651636 39.310379)" fill="#1d2f29" stroke="#1d2f29" stroke-width="0.6"/><path d="M54.025186,176.791317l23.926706-4.919524c.920538,3.487725,4.328223,8.835154,7.101919,13.303762L65.66721,202.359132c-4.44723-6.671738-10.504745-18.179739-11.642024-25.567815Z" transform="translate(.000003 0.000001)" fill="#1d2f29" stroke="#1d2f29" stroke-width="0.6"/></svg>
